<svg width="1440" height="100" viewBox="0 0 1440 100" fill="none" xmlns="http://www.w3.org/2000/svg">
<rect width="1440" height="100" fill="#202024"/>
<path opacity="0.5" d="M680.067 20.4105L664.388 75.9541C664.308 76.2062 663.989 76.2819 663.803 76.1054L653.306 66.1464L661.172 38.3115C661.252 38.0594 661.013 37.8325 660.747 37.9081L631.409 45.3711L620.965 35.4625C620.779 35.286 620.859 34.9834 621.125 34.9078L679.642 20.0071C679.908 19.9567 680.147 20.1836 680.067 20.4105Z" fill="#00B37E"/>
<path opacity="0.5" d="M653.306 66.1459L649.266 80.5171C649.187 80.7693 648.868 80.8449 648.682 80.6684L616.101 49.7828C615.915 49.6063 615.995 49.3038 616.261 49.2282L631.408 45.3706L653.306 66.1459Z" fill="#00B37E"/>
<path d="M661.171 38.311L653.305 66.1459L631.408 45.3706L660.746 37.9076C661.012 37.832 661.251 38.0589 661.171 38.311Z" fill="#00B37E"/>
<path d="M701.683 40.6927V58.8823H697.947V40.6927H701.683ZM713.526 45.3651H716.786V58.4326C716.786 59.6652 716.512 60.7104 715.962 61.5683C715.421 62.4344 714.663 63.0882 713.688 63.5296C712.714 63.9794 711.581 64.2042 710.29 64.2042C709.724 64.2042 709.124 64.1293 708.491 63.9794C707.867 63.8295 707.267 63.5963 706.692 63.2798C706.126 62.9633 705.651 62.5635 705.268 62.0805L706.855 59.9567C707.271 60.4397 707.754 60.8145 708.304 61.081C708.854 61.3559 709.462 61.4933 710.128 61.4933C710.777 61.4933 711.327 61.3725 711.777 61.131C712.227 60.8978 712.572 60.5522 712.814 60.0941C713.055 59.6444 713.176 59.0988 713.176 58.4575V48.4883L713.526 45.3651ZM704.431 52.2861V52.0237C704.431 50.991 704.556 50.054 704.806 49.2128C705.064 48.3633 705.426 47.6346 705.893 47.0266C706.367 46.4186 706.942 45.9481 707.617 45.6149C708.291 45.2818 709.053 45.1152 709.903 45.1152C710.802 45.1152 711.556 45.2818 712.164 45.6149C712.772 45.9481 713.272 46.4228 713.663 47.0391C714.055 47.6471 714.359 48.3675 714.575 49.2004C714.8 50.0249 714.975 50.9285 715.1 51.9113V52.486C714.975 53.4271 714.788 54.3016 714.538 55.1095C714.288 55.9173 713.959 56.6253 713.551 57.2332C713.143 57.8329 712.635 58.2993 712.027 58.6324C711.427 58.9656 710.711 59.1322 709.878 59.1322C709.045 59.1322 708.291 58.9614 707.617 58.62C706.95 58.2785 706.38 57.7996 705.905 57.1833C705.431 56.567 705.064 55.8424 704.806 55.0095C704.556 54.1767 704.431 53.2689 704.431 52.2861ZM708.029 52.0237V52.2861C708.029 52.8441 708.083 53.3646 708.191 53.8477C708.3 54.3307 708.466 54.7597 708.691 55.1345C708.924 55.5009 709.212 55.7882 709.553 55.9965C709.903 56.1963 710.315 56.2963 710.79 56.2963C711.448 56.2963 711.985 56.1589 712.402 55.884C712.818 55.6009 713.13 55.2136 713.338 54.7222C713.547 54.2308 713.667 53.6645 713.701 53.0232V51.3866C713.684 50.8619 713.613 50.3913 713.488 49.9749C713.363 49.5502 713.189 49.1879 712.964 48.888C712.739 48.5882 712.447 48.355 712.089 48.1884C711.731 48.0219 711.306 47.9386 710.815 47.9386C710.34 47.9386 709.928 48.0468 709.578 48.2634C709.237 48.4716 708.949 48.7589 708.716 49.1254C708.491 49.4919 708.321 49.9249 708.204 50.4247C708.087 50.916 708.029 51.4491 708.029 52.0237ZM723.108 48.2509V58.8823H719.51V45.3651H722.883L723.108 48.2509ZM722.583 51.649H721.609C721.609 50.6495 721.738 49.75 721.996 48.9505C722.254 48.1426 722.616 47.4555 723.083 46.8892C723.549 46.3145 724.103 45.8773 724.744 45.5774C725.394 45.2693 726.119 45.1152 726.918 45.1152C727.551 45.1152 728.13 45.2068 728.655 45.39C729.179 45.5733 729.629 45.8648 730.004 46.2645C730.387 46.6643 730.679 47.1932 730.878 47.8511C731.087 48.5091 731.191 49.3128 731.191 50.2622V58.8823H727.568V50.2498C727.568 49.6501 727.485 49.1837 727.318 48.8506C727.151 48.5174 726.906 48.2842 726.581 48.151C726.264 48.0094 725.873 47.9386 725.407 47.9386C724.923 47.9386 724.503 48.0344 724.145 48.2259C723.795 48.4175 723.503 48.684 723.27 49.0255C723.045 49.3586 722.875 49.75 722.758 50.1998C722.641 50.6495 722.583 51.1326 722.583 51.649ZM737.724 45.3651V58.8823H734.114V45.3651H737.724ZM733.889 41.8421C733.889 41.3174 734.072 40.8843 734.439 40.5428C734.805 40.2013 735.297 40.0306 735.913 40.0306C736.521 40.0306 737.008 40.2013 737.375 40.5428C737.749 40.8843 737.937 41.3174 737.937 41.8421C737.937 42.3668 737.749 42.7999 737.375 43.1413C737.008 43.4828 736.521 43.6535 735.913 43.6535C735.297 43.6535 734.805 43.4828 734.439 43.1413C734.072 42.7999 733.889 42.3668 733.889 41.8421ZM747.319 45.3651V47.9136H739.449V45.3651H747.319ZM741.397 42.0295H744.995V54.8096C744.995 55.2011 745.045 55.5009 745.145 55.7091C745.254 55.9173 745.412 56.0631 745.62 56.1464C745.828 56.2213 746.091 56.2588 746.407 56.2588C746.632 56.2588 746.832 56.2505 747.007 56.2338C747.19 56.2088 747.344 56.1838 747.469 56.1589L747.481 58.8073C747.173 58.9073 746.84 58.9864 746.482 59.0447C746.124 59.103 745.728 59.1322 745.295 59.1322C744.504 59.1322 743.813 59.0031 743.221 58.7449C742.638 58.4784 742.189 58.0536 741.872 57.4706C741.556 56.8876 741.397 56.1214 741.397 55.1719V42.0295ZM755.589 59.1322C754.54 59.1322 753.599 58.9656 752.766 58.6324C751.933 58.291 751.225 57.8204 750.642 57.2208C750.067 56.6211 749.626 55.9257 749.318 55.1345C749.01 54.3349 748.856 53.4854 748.856 52.5859V52.0862C748.856 51.0618 749.001 50.1248 749.293 49.2753C749.584 48.4258 750.001 47.6887 750.542 47.0641C751.092 46.4394 751.758 45.9605 752.541 45.6274C753.324 45.2859 754.207 45.1152 755.189 45.1152C756.147 45.1152 756.997 45.2734 757.738 45.5899C758.479 45.9064 759.1 46.3562 759.599 46.9392C760.107 47.5222 760.491 48.2217 760.749 49.0379C761.007 49.8458 761.136 50.7453 761.136 51.7364V53.2355H750.392V50.8369H757.601V50.5621C757.601 50.0624 757.509 49.6168 757.326 49.2253C757.151 48.8256 756.884 48.5091 756.526 48.2759C756.168 48.0427 755.71 47.9261 755.152 47.9261C754.677 47.9261 754.269 48.0302 753.928 48.2384C753.586 48.4466 753.307 48.7381 753.091 49.1129C752.882 49.4877 752.724 49.9291 752.616 50.4371C752.516 50.9369 752.466 51.4865 752.466 52.0862V52.5859C752.466 53.1273 752.541 53.627 752.691 54.0851C752.849 54.5431 753.07 54.9387 753.353 55.2719C753.645 55.605 753.994 55.8632 754.402 56.0464C754.819 56.2297 755.289 56.3213 755.814 56.3213C756.464 56.3213 757.068 56.1963 757.626 55.9465C758.192 55.6883 758.679 55.301 759.087 54.7847L760.836 56.6836C760.553 57.0917 760.166 57.4831 759.674 57.8579C759.191 58.2327 758.608 58.5408 757.925 58.7824C757.242 59.0156 756.464 59.1322 755.589 59.1322ZM773.529 40.6927V58.8823H769.781V40.6927H773.529ZM780.775 48.4633V51.3866H772.505V48.4633H780.775ZM781.649 40.6927V43.6286H772.505V40.6927H781.649ZM789.545 59.1322C788.495 59.1322 787.554 58.9656 786.721 58.6324C785.889 58.291 785.181 57.8204 784.598 57.2208C784.023 56.6211 783.582 55.9257 783.273 55.1345C782.965 54.3349 782.811 53.4854 782.811 52.5859V52.0862C782.811 51.0618 782.957 50.1248 783.248 49.2753C783.54 48.4258 783.956 47.6887 784.498 47.0641C785.047 46.4394 785.714 45.9605 786.497 45.6274C787.279 45.2859 788.162 45.1152 789.145 45.1152C790.103 45.1152 790.952 45.2734 791.694 45.5899C792.435 45.9064 793.055 46.3562 793.555 46.9392C794.063 47.5222 794.446 48.2217 794.704 49.0379C794.962 49.8458 795.092 50.7453 795.092 51.7364V53.2355H784.348V50.8369H791.556V50.5621C791.556 50.0624 791.465 49.6168 791.281 49.2253C791.106 48.8256 790.84 48.5091 790.482 48.2759C790.124 48.0427 789.666 47.9261 789.108 47.9261C788.633 47.9261 788.225 48.0302 787.883 48.2384C787.542 48.4466 787.263 48.7381 787.046 49.1129C786.838 49.4877 786.68 49.9291 786.571 50.4371C786.472 50.9369 786.422 51.4865 786.422 52.0862V52.5859C786.422 53.1273 786.497 53.627 786.646 54.0851C786.805 54.5431 787.025 54.9387 787.309 55.2719C787.6 55.605 787.95 55.8632 788.358 56.0464C788.774 56.2297 789.245 56.3213 789.77 56.3213C790.419 56.3213 791.023 56.1963 791.581 55.9465C792.147 55.6883 792.635 55.301 793.043 54.7847L794.792 56.6836C794.509 57.0917 794.121 57.4831 793.63 57.8579C793.147 58.2327 792.564 58.5408 791.881 58.7824C791.198 59.0156 790.419 59.1322 789.545 59.1322ZM803.362 59.1322C802.312 59.1322 801.371 58.9656 800.538 58.6324C799.706 58.291 798.998 57.8204 798.415 57.2208C797.84 56.6211 797.399 55.9257 797.09 55.1345C796.782 54.3349 796.628 53.4854 796.628 52.5859V52.0862C796.628 51.0618 796.774 50.1248 797.065 49.2753C797.357 48.4258 797.773 47.6887 798.315 47.0641C798.864 46.4394 799.531 45.9605 800.314 45.6274C801.096 45.2859 801.979 45.1152 802.962 45.1152C803.92 45.1152 804.769 45.2734 805.511 45.5899C806.252 45.9064 806.872 46.3562 807.372 46.9392C807.88 47.5222 808.263 48.2217 808.521 49.0379C808.78 49.8458 808.909 50.7453 808.909 51.7364V53.2355H798.165V50.8369H805.373V50.5621C805.373 50.0624 805.282 49.6168 805.098 49.2253C804.923 48.8256 804.657 48.5091 804.299 48.2759C803.941 48.0427 803.483 47.9261 802.925 47.9261C802.45 47.9261 802.042 48.0302 801.7 48.2384C801.359 48.4466 801.08 48.7381 800.863 49.1129C800.655 49.4877 800.497 49.9291 800.389 50.4371C800.289 50.9369 800.239 51.4865 800.239 52.0862V52.5859C800.239 53.1273 800.314 53.627 800.464 54.0851C800.622 54.5431 800.842 54.9387 801.126 55.2719C801.417 55.605 801.767 55.8632 802.175 56.0464C802.591 56.2297 803.062 56.3213 803.587 56.3213C804.236 56.3213 804.84 56.1963 805.398 55.9465C805.965 55.6883 806.452 55.301 806.86 54.7847L808.609 56.6836C808.326 57.0917 807.938 57.4831 807.447 57.8579C806.964 58.2327 806.381 58.5408 805.698 58.7824C805.015 59.0156 804.236 59.1322 803.362 59.1322ZM818.94 55.934V39.6933H822.563V58.8823H819.303L818.94 55.934ZM810.395 52.2861V52.0237C810.395 50.991 810.512 50.054 810.745 49.2128C810.978 48.3633 811.32 47.6346 811.77 47.0266C812.219 46.4186 812.773 45.9481 813.431 45.6149C814.089 45.2818 814.839 45.1152 815.68 45.1152C816.471 45.1152 817.162 45.2818 817.754 45.6149C818.353 45.9481 818.861 46.4228 819.278 47.0391C819.702 47.6471 820.044 48.3675 820.302 49.2004C820.56 50.0249 820.748 50.9285 820.864 51.9113V52.486C820.748 53.4271 820.56 54.3016 820.302 55.1095C820.044 55.9173 819.702 56.6253 819.278 57.2332C818.861 57.8329 818.353 58.2993 817.754 58.6324C817.154 58.9656 816.454 59.1322 815.655 59.1322C814.814 59.1322 814.064 58.9614 813.406 58.62C812.756 58.2785 812.207 57.7996 811.757 57.1833C811.316 56.567 810.978 55.8424 810.745 55.0095C810.512 54.1767 810.395 53.2689 810.395 52.2861ZM813.993 52.0237V52.2861C813.993 52.8441 814.035 53.3646 814.118 53.8477C814.21 54.3307 814.356 54.7597 814.555 55.1345C814.764 55.5009 815.03 55.7882 815.355 55.9965C815.688 56.1963 816.092 56.2963 816.567 56.2963C817.183 56.2963 817.691 56.1589 818.091 55.884C818.491 55.6009 818.795 55.2136 819.003 54.7222C819.219 54.2308 819.344 53.6645 819.378 53.0232V51.3866C819.353 50.8619 819.278 50.3913 819.153 49.9749C819.036 49.5502 818.861 49.1879 818.628 48.888C818.403 48.5882 818.12 48.355 817.779 48.1884C817.445 48.0219 817.05 47.9386 816.592 47.9386C816.125 47.9386 815.726 48.0468 815.392 48.2634C815.059 48.4716 814.789 48.7589 814.58 49.1254C814.381 49.4919 814.231 49.9249 814.131 50.4247C814.039 50.916 813.993 51.4491 813.993 52.0237Z" fill="#E1E1E6"/>
</svg>
